<svg width="24" height="24" viewBox="0 0 24 24" fill="none" xmlns="http://www.w3.org/2000/svg">
<g clip-path="url(#clip0_3_2)">
<path d="M12 24C18.6274 24 24 18.6274 24 12C24 5.37258 18.6274 0 12 0C5.37258 0 0 5.37258 0 12C0 18.6274 5.37258 24 12 24Z" fill="#00E676"/>
<path d="M16.201 7.746C15.6506 7.19112 14.9955 6.75113 14.2736 6.45157C13.5517 6.15201 12.7775 5.99886 11.996 6.001C8.72 6.001 6.051 8.67 6.048 11.946C6.048 12.995 6.322 14.016 6.841 14.919L6 18.001L9.153 17.175C10.0254 17.6498 11.0028 17.8987 11.996 17.899H11.999C15.274 17.899 17.943 15.23 17.946 11.951C17.9469 11.1695 17.7931 10.3956 17.4934 9.67393C17.1938 8.95222 16.7552 8.29698 16.201 7.746ZM11.995 16.892C11.105 16.892 10.235 16.652 9.477 16.202L9.297 16.094L7.427 16.584L7.927 14.76L7.809 14.572C7.3127 13.7848 7.05082 12.8726 7.054 11.942C7.05744 10.6325 7.57965 9.37766 8.50628 8.45234C9.43292 7.52702 10.6885 7.00658 11.998 7.005C13.318 7.005 14.558 7.521 15.493 8.453C15.9526 8.91156 16.3169 9.45656 16.5649 10.0566C16.8129 10.6566 16.9397 11.2998 16.938 11.949C16.9361 13.2594 16.4148 14.5156 15.4882 15.4422C14.5616 16.3688 13.3054 16.8901 11.995 16.892ZM14.706 13.192C14.3711 13.0233 14.0327 12.8616 13.691 12.707C13.554 12.658 13.455 12.633 13.357 12.781C13.257 12.929 12.973 13.266 12.887 13.363C12.802 13.463 12.713 13.473 12.565 13.4C12.417 13.327 11.938 13.169 11.37 12.661C11.0452 12.3605 10.7666 12.0138 10.543 11.632C10.458 11.484 10.535 11.404 10.609 11.33C10.675 11.264 10.757 11.156 10.832 11.07C10.906 10.985 10.932 10.922 10.98 10.822C11.028 10.722 11.005 10.637 10.968 10.563C10.931 10.489 10.635 9.756 10.509 9.46C10.389 9.169 10.267 9.209 10.176 9.206C10.09 9.2 9.99 9.2 9.892 9.2C9.792 9.2 9.632 9.237 9.495 9.385C9.359 9.534 8.976 9.893 8.976 10.625C8.976 11.358 9.51 12.063 9.584 12.162C9.658 12.262 10.63 13.762 12.121 14.406C12.475 14.56 12.751 14.651 12.968 14.72C13.324 14.834 13.646 14.817 13.903 14.78C14.188 14.737 14.781 14.42 14.907 14.073C15.029 13.725 15.029 13.428 14.992 13.366C14.955 13.303 14.854 13.266 14.706 13.192Z" fill="white"/>
</g>
<defs>
<clipPath id="clip0_3_2">
<rect width="24" height="24" fill="white"/>
</clipPath>
</defs>
</svg>
